<?xml version="1.0" standalone="no"?>
<!DOCTYPE svg PUBLIC "-//W3C//DTD SVG 20010904//EN"
 "http://www.w3.org/TR/2001/REC-SVG-20010904/DTD/svg10.dtd">
<svg version="1.0" xmlns="http://www.w3.org/2000/svg"
 width="1022.000000pt" height="1022.000000pt" viewBox="0 0 1022.000000 1022.000000"
 preserveAspectRatio="xMidYMid meet">
<metadata>
Created by potrace 1.14, written by Peter Selinger 2001-2017
</metadata>
<g transform="translate(0.000000,1022.000000) scale(0.100000,-0.100000)"
fill="#000000" stroke="none">
<path d="M4975 10209 c-313 -42 -786 -224 -1214 -466 -335 -190 -902 -559
-1531 -996 -357 -248 -790 -536 -975 -647 -633 -383 -802 -588 -894 -1085 -53
-282 -55 -809 -6 -1455 39 -512 44 -1181 14 -1840 -34 -765 52 -1079 384
-1397 214 -204 499 -382 1222 -763 465 -245 701 -384 1160 -683 602 -393 814
-521 1070 -646 358 -176 607 -241 865 -228 316 17 783 187 1288 469 269 150
514 302 1142 708 691 447 913 586 1125 705 398 222 540 305 645 376 349 235
502 459 579 846 45 224 56 364 56 678 -1 304 -5 381 -52 1035 -32 441 -35 814
-9 1170 35 490 32 948 -9 1181 -55 312 -198 559 -443 762 -216 179 -468 328
-1132 667 -643 329 -785 411 -1305 755 -176 116 -363 239 -415 272 -516 327
-874 508 -1119 564 -101 23 -339 33 -446 18z m361 -319 c149 -39 286 -93 434
-173 126 -68 428 -267 640 -422 310 -226 355 -259 497 -351 395 -258 588 -378
852 -526 948 -533 1240 -749 1465 -1083 73 -108 153 -279 182 -390 24 -90 27
-119 28 -280 1 -139 -3 -201 -18 -272 -16 -80 -18 -124 -13 -355 4 -193 9
-282 21 -333 54 -229 81 -634 73 -1090 -9 -518 -54 -1037 -138 -1580 -31 -205
-47 -245 -94 -245 -42 0 -126 -53 -213 -134 -209 -196 -306 -252 -1029 -592
-248 -116 -441 -219 -699 -369 -148 -87 -229 -139 -674 -427 -738 -477 -1073
-634 -1480 -694 -343 -50 -774 57 -1305 323 -397 199 -596 323 -1430 891 -569
388 -772 532 -837 593 -50 48 -89 68 -212 116 -256 99 -404 204 -507 361 -115
175 -143 356 -154 997 -7 420 -27 874 -61 1365 -73 1077 -38 1622 130 2045
122 308 290 438 1146 890 615 324 1166 645 1785 1040 33 21 207 134 386 251
576 376 698 444 831 470 108 20 250 11 394 -26z"/>
<path d="M4816 7299 c-328 -42 -660 -163 -916 -334 -220 -146 -349 -341 -385
-584 -34 -224 -14 -366 80 -558 207 -423 744 -825 1525 -1143 367 -150 563
-277 621 -403 25 -56 25 -146 0 -196 -33 -65 -131 -146 -244 -201 -143 -70
-194 -82 -382 -87 -195 -6 -308 7 -665 79 -237 47 -268 51 -440 56 -211 5
-263 -2 -366 -52 -72 -34 -125 -80 -152 -131 -21 -40 -28 -170 -12 -237 31
-133 156 -283 328 -396 205 -133 403 -185 825 -213 201 -14 437 -3 705 31 209
27 273 41 495 111 286 90 466 138 606 161 69 11 129 23 133 27 4 3 12 37 18
75 16 101 41 163 108 270 345 551 143 1017 -677 1565 -176 118 -308 197 -668
397 -461 257 -597 346 -705 462 -73 80 -100 137 -106 226 -15 246 127 308 793
346 344 20 538 47 800 113 61 15 91 27 93 38 1 8 -14 46 -35 85 -45 82 -216
259 -307 319 -118 76 -327 143 -533 170 -125 16 -422 18 -537 4z"/>
<path d="M9117 5980 c-72 -80 -99 -184 -117 -440 -13 -190 -13 -467 0 -454 17
17 59 195 130 556 38 197 70 364 70 373 0 30 -39 14 -83 -35z"/>
<path d="M6540 3170 c0 -5 5 -10 10 -10 6 0 10 5 10 10 0 6 -4 10 -10 10 -5 0
-10 -4 -10 -10z"/>
<path d="M8585 2621 c-283 -98 -677 -274 -1055 -471 -315 -164 -410 -219 -410
-233 0 -21 60 5 665 285 889 413 1022 478 977 478 -4 0 -84 -26 -177 -59z"/>
<path d="M1795 2381 l-30 -8 26 -12 c22 -11 31 -10 58 3 17 9 31 19 31 21 0 7
-49 4 -85 -4z"/>
</g>
</svg>
